<svg id="No_internet" data-name="No internet" xmlns="http://www.w3.org/2000/svg" xmlns:xlink="http://www.w3.org/1999/xlink" width="158" height="140" viewBox="0 0 158 140">
  <defs>
    <clipPath id="clip-path">
      <rect id="Rectangle_148743" data-name="Rectangle 148743" width="96" height="96" transform="translate(31 22)" fill="#fff"/>
    </clipPath>
  </defs>
  <path id="Path_67732" data-name="Path 67732" d="M79,60H48A48,48,0,0,0,0,108v32H31A48,48,0,0,0,79,92Z" fill="#f1f1f1"/>
  <path id="Path_67733" data-name="Path 67733" d="M79,0h31a48,48,0,0,1,48,48V80H127A48,48,0,0,1,79,32Z" fill="#70434a"/>
  <g id="Group_74582" data-name="Group 74582" clip-path="url(#clip-path)">
    <path id="Path_67734" data-name="Path 67734" d="M107.36,72.354a2.945,2.945,0,0,1-1.84-.64,42.4,42.4,0,0,0-53.08,0,2.993,2.993,0,0,1-3.68-4.72,48.144,48.144,0,0,1,60.4,0,2.953,2.953,0,0,1,.52,4.2,2.772,2.772,0,0,1-2.32,1.16Z" fill="#39383a"/>
    <path id="Path_67735" data-name="Path 67735" d="M119,58.43a2.942,2.942,0,0,1-1.84-.64,60.893,60.893,0,0,0-76.32,0,2.993,2.993,0,0,1-3.68-4.72,66.8,66.8,0,0,1,83.68,0A3,3,0,0,1,119,58.43Z" fill="#39383a"/>
    <path id="Path_67736" data-name="Path 67736" d="M99.84,86.945A2.944,2.944,0,0,1,98,86.3a30.324,30.324,0,0,0-38,0,2.985,2.985,0,0,1-3.68-4.7,36.164,36.164,0,0,1,45.32,0,2.953,2.953,0,0,1,.52,4.2,2.88,2.88,0,0,1-2.32,1.14Z" fill="#39383a"/>
    <path id="Path_67737" data-name="Path 67737" d="M89.4,101.586a2.942,2.942,0,0,1-1.84-.64,13.665,13.665,0,0,0-17.16,0,2.992,2.992,0,0,1-3.68-4.72,19.5,19.5,0,0,1,24.48,0,2.952,2.952,0,0,1,.52,4.2,2.88,2.88,0,0,1-2.32,1.16Z" fill="#39383a"/>
    <path id="Path_67738" data-name="Path 67738" d="M39,113.019a2.971,2.971,0,0,1-2.12-.88,3.016,3.016,0,0,1,0-4.24l80-80a3,3,0,0,1,4.24,4.24l-14.64,14.64L41.12,112.131a2.974,2.974,0,0,1-2.12.888Z" fill="#39383a"/>
  </g>
</svg>
